# xmcd
#
# Track frame offsets:
#	150
#	33559
#	54353
#	72408
#	96706
#	118345
#	141852
#
# Disc length: 2059 seconds
#
# Revision: 1
# Processed by: cddbd v1.5.2PL0 Copyright (c) Steve Scherf et al.
# Submitted via: audiograbber 1.83.01
#
DISCID=6d080907
DTITLE=Grateful Dead - 89-10-16 Meadowlands Arena, East Rutherford NJ
DYEAR=1900
DGENRE=
TTITLE0=Space
TTITLE1=I Will Take You Home
TTITLE2=I Need A Miracle
TTITLE3=Dark Star
TTITLE4=Attics Of My Life
TTITLE5=Playing In The Band Reprise
TTITLE6=And We bid You Goodnight
EXTD=
EXTT0=
EXTT1=
EXTT2=
EXTT3=
EXTT4=
EXTT5=
EXTT6=
PLAYORDER=
